<svg width="16" height="14" viewBox="0 0 16 14" fill="none" xmlns="http://www.w3.org/2000/svg">
<path d="M15.2871 11.8984C15.3633 12.2031 15.2109 12.584 14.8301 12.6855L14.4238 12.7871C14.2715 12.8379 14.0938 12.7871 13.8906 12.6855C13.4844 12.7109 12.5195 12.9648 12.1641 13.1426C12.0625 13.3457 11.9102 13.4727 11.7578 13.498L11.377 13.625C10.9707 13.7266 10.6406 13.4727 10.5645 13.1426L8 3.0625H4.75V1.4375C4.75 1.00586 5.10547 0.625 5.5625 0.625H7.1875C7.61914 0.625 8 1.00586 8 1.4375V1.66602C8.02539 1.64062 8.07617 1.61523 8.15234 1.58984L8.5332 1.48828C8.68555 1.4375 8.86328 1.48828 9.06641 1.58984C9.47266 1.56445 10.4375 1.31055 10.793 1.13281C10.9199 0.929688 11.0469 0.802734 11.1992 0.777344L11.6055 0.650391C11.9863 0.548828 12.3164 0.802734 12.3926 1.13281L15.2871 11.8984ZM11.8594 11.7207L13.4336 11.2891L11.0977 2.55469L9.52344 2.98633L11.8594 11.7207ZM0.6875 10.375V3.875H3.9375V10.375H0.6875ZM3.125 0.625C3.55664 0.625 3.9375 1.00586 3.9375 1.4375V3.0625H0.6875V1.4375C0.6875 1.00586 1.04297 0.625 1.5 0.625H3.125ZM0.6875 12.8125V11.1875H3.9375V12.8125C3.9375 13.2695 3.55664 13.625 3.125 13.625H1.5C1.04297 13.625 0.6875 13.2695 0.6875 12.8125ZM4.75 10.375V3.875H8V10.375H4.75ZM4.75 12.8125V11.1875H8V12.8125C8 13.2695 7.61914 13.625 7.1875 13.625H5.5625C5.10547 13.625 4.75 13.2695 4.75 12.8125Z" fill="white"/>
</svg>
