<svg width="14" height="12" viewBox="0 0 14 12" fill="none" xmlns="http://www.w3.org/2000/svg">
<path d="M8.625 8.15625V6.9375H13.5V10.5938C13.5 11.2539 12.916 11.8125 12.2812 11.8125H1.71875C1.05859 11.8125 0.5 11.2539 0.5 10.5938V6.9375H5.375V8.15625C5.375 8.38477 5.55273 8.5625 5.78125 8.5625H8.21875C8.42188 8.5625 8.625 8.38477 8.625 8.15625ZM12.2812 2.875C12.916 2.875 13.5 3.45898 13.5 4.09375V6.125H0.5V4.09375C0.5 3.45898 1.05859 2.875 1.71875 2.875H3.75V1.65625C3.75 1.02148 4.30859 0.4375 4.96875 0.4375H9.03125C9.66602 0.4375 10.25 1.02148 10.25 1.65625V2.875H12.2812ZM8.625 2.875V2.0625H5.375V2.875H8.625Z" fill="white"/>
</svg>
