<svg width="18" height="14" viewBox="0 0 18 14" fill="none" xmlns="http://www.w3.org/2000/svg">
<path d="M1.89062 2.35156C1.71289 2.25 1.63672 1.99609 1.73828 1.79297L2.14453 1.10742C2.27148 0.904297 2.52539 0.828125 2.70312 0.955078L4.6582 2.07227C4.35352 2.5293 4.09961 3.01172 3.94727 3.54492L1.89062 2.35156ZM4.20117 7.32812C4.42969 7.78516 4.68359 8.2168 5.03906 8.62305C5.06445 8.62305 5.08984 8.67383 5.11523 8.69922L2.70312 10.0703C2.52539 10.1973 2.27148 10.1211 2.14453 9.91797L1.73828 9.23242C1.63672 9.0293 1.71289 8.77539 1.89062 8.67383L4.20117 7.32812ZM16.084 2.35156L14.0273 3.54492C13.875 3.01172 13.6211 2.5293 13.3164 2.07227L15.2715 0.955078C15.4492 0.828125 15.7031 0.904297 15.8301 1.10742L16.2363 1.79297C16.3379 1.99609 16.2617 2.25 16.084 2.35156ZM3.71875 4.6875C3.69336 5.24609 3.71875 5.80469 3.8457 6.3125H1.28125C1.05273 6.3125 0.875 6.13477 0.875 5.90625V5.09375C0.875 4.89062 1.05273 4.6875 1.28125 4.6875H3.71875ZM16.7188 4.6875C16.9219 4.6875 17.125 4.89062 17.125 5.09375V5.90625C17.125 6.13477 16.9219 6.3125 16.7188 6.3125H14.1035C14.3066 5.5 14.2812 5.06836 14.2559 4.6875H16.7188ZM16.084 8.67383C16.2617 8.77539 16.3379 9.0293 16.2363 9.23242L15.8301 9.91797C15.7031 10.1211 15.4492 10.1973 15.2715 10.0703L12.8594 8.69922C12.9102 8.64844 12.9355 8.62305 12.9609 8.57227C13.291 8.19141 13.5449 7.78516 13.748 7.32812L16.084 8.67383ZM8.97461 0.625C11.4375 0.625 13.4688 2.63086 13.4688 5.09375C13.4688 6.23633 13.0371 7.25195 12.3516 8.03906C11.9199 8.52148 11.2852 9.53711 11.0312 10.375C11.0312 10.375 11.0312 10.375 11.0312 10.4004H6.94336C6.94336 10.375 6.94336 10.375 6.94336 10.375C6.68945 9.53711 6.05469 8.52148 5.62305 8.03906C4.9375 7.25195 4.53125 6.23633 4.53125 5.09375C4.53125 2.73242 6.38477 0.650391 8.97461 0.625ZM9 3.0625C9.20312 3.0625 9.40625 2.88477 9.40625 2.65625C9.40625 2.45312 9.20312 2.25 9 2.25C7.42578 2.25 6.15625 3.54492 6.15625 5.09375C6.15625 5.32227 6.33398 5.5 6.5625 5.5C6.76562 5.5 6.96875 5.32227 6.96875 5.09375C6.96875 3.97656 7.85742 3.0625 9 3.0625ZM6.96875 12.1777V11.1875H11.0059V12.1777C11.0059 12.3047 10.9551 12.5078 10.8789 12.6348L10.4473 13.2695C10.3203 13.4727 10.0156 13.6504 9.76172 13.6504H8.21289C7.95898 13.6504 7.6543 13.4727 7.52734 13.2695L7.0957 12.6348C6.99414 12.4824 6.96875 12.3301 6.96875 12.1777Z" fill="white"/>
</svg>
