<?xml version="1.0" standalone="no"?>
<svg xmlns="http://www.w3.org/2000/svg" width="1024" height="1024" viewBox="0 0 1024 1024"><defs><clipPath id="clip-path-dot-color"><circle cx="77.5" cy="387.5" r="15.5" transform="rotate(0,77.5,387.5)"/><path d="M 62 434v 31h 15.5a 15.5 15.5, 0, 0, 0, 0 -31" transform="rotate(-90,77.5,449.5)"/><rect x="62" y="465" width="31" height="31" transform="rotate(0,77.5,480.5)"/><path d="M 62 496v 31h 15.5a 15.5 15.5, 0, 0, 0, 0 -31" transform="rotate(90,77.5,511.5)"/><path d="M 62 558v 31h 31v -15.5a 15.5 15.5, 0, 0, 0, -15.5 -15.5" transform="rotate(-90,77.5,573.5)"/><rect x="62" y="589" width="31" height="31" transform="rotate(0,77.5,604.5)"/><rect x="62" y="620" width="31" height="31" transform="rotate(0,77.5,635.5)"/><path d="M 62 651v 31h 15.5a 15.5 15.5, 0, 0, 0, 0 -31" transform="rotate(90,77.5,666.5)"/><circle cx="108.5" cy="325.5" r="15.5" transform="rotate(0,108.5,325.5)"/><circle cx="108.5" cy="418.5" r="15.5" transform="rotate(0,108.5,418.5)"/><path d="M 93 465v 31h 15.5a 15.5 15.5, 0, 0, 0, 0 -31" transform="rotate(0,108.5,480.5)"/><path d="M 93 527v 31h 15.5a 15.5 15.5, 0, 0, 0, 0 -31" transform="rotate(-90,108.5,542.5)"/><rect x="93" y="558" width="31" height="31" transform="rotate(0,108.5,573.5)"/><path d="M 93 589v 31h 31v -15.5a 15.5 15.5, 0, 0, 0, -15.5 -15.5" transform="rotate(90,108.5,604.5)"/><path d="M 93 682v 31h 15.5a 15.5 15.5, 0, 0, 0, 0 -31" transform="rotate(180,108.5,697.5)"/><circle cx="139.5" cy="511.5" r="15.5" transform="rotate(0,139.5,511.5)"/><rect x="124" y="558" width="31" height="31" transform="rotate(0,139.5,573.5)"/><circle cx="139.5" cy="635.5" r="15.5" transform="rotate(0,139.5,635.5)"/><rect x="124" y="682" width="31" height="31" transform="rotate(0,139.5,697.5)"/><path d="M 155 310v 31h 31v -15.5a 15.5 15.5, 0, 0, 0, -15.5 -15.5" transform="rotate(-90,170.5,325.5)"/><path d="M 155 341v 31h 31v -15.5a 15.5 15.5, 0, 0, 0, -15.5 -15.5" transform="rotate(180,170.5,356.5)"/><circle cx="170.5" cy="418.5" r="15.5" transform="rotate(0,170.5,418.5)"/><path d="M 155 527v 31h 31v -15.5a 15.5 15.5, 0, 0, 0, -15.5 -15.5" transform="rotate(-90,170.5,542.5)"/><rect x="155" y="558" width="31" height="31" transform="rotate(0,170.5,573.5)"/><path d="M 155 589v 31h 31v -15.5a 15.5 15.5, 0, 0, 0, -15.5 -15.5" transform="rotate(180,170.5,604.5)"/><path d="M 155 651v 31h 31v -15.5a 15.5 15.5, 0, 0, 0, -15.5 -15.5" transform="rotate(-90,170.5,666.5)"/><path d="M 155 682v 31h 31v -15.5a 15.5 15.5, 0, 0, 0, -15.5 -15.5" transform="rotate(90,170.5,697.5)"/><path d="M 186 310v 31h 31v -15.5a 15.5 15.5, 0, 0, 0, -15.5 -15.5" transform="rotate(0,201.5,325.5)"/><rect x="186" y="341" width="31" height="31" transform="rotate(0,201.5,356.5)"/><path d="M 186 372v 31h 31v -15.5a 15.5 15.5, 0, 0, 0, -15.5 -15.5" transform="rotate(180,201.5,387.5)"/><path d="M 186 465v 31h 31v -15.5a 15.5 15.5, 0, 0, 0, -15.5 -15.5" transform="rotate(-90,201.5,480.5)"/><rect x="186" y="496" width="31" height="31" transform="rotate(0,201.5,511.5)"/><path d="M 186 527v 31h 31v -15.5a 15.5 15.5, 0, 0, 0, -15.5 -15.5" transform="rotate(90,201.5,542.5)"/><rect x="186" y="589" width="31" height="31" transform="rotate(0,201.5,604.5)"/><path d="M 186 651v 31h 15.5a 15.5 15.5, 0, 0, 0, 0 -31" transform="rotate(0,201.5,666.5)"/><rect x="217" y="372" width="31" height="31" transform="rotate(0,232.5,387.5)"/><path d="M 217 434v 31h 31v -15.5a 15.5 15.5, 0, 0, 0, -15.5 -15.5" transform="rotate(-90,232.5,449.5)"/><path d="M 217 465v 31h 31v -15.5a 15.5 15.5, 0, 0, 0, -15.5 -15.5" transform="rotate(90,232.5,480.5)"/><path d="M 217 558v 31h 31v -15.5a 15.5 15.5, 0, 0, 0, -15.5 -15.5" transform="rotate(-90,232.5,573.5)"/><rect x="217" y="589" width="31" height="31" transform="rotate(0,232.5,604.5)"/><path d="M 217 620v 31h 31v -15.5a 15.5 15.5, 0, 0, 0, -15.5 -15.5" transform="rotate(180,232.5,635.5)"/><path d="M 248 310v 31h 15.5a 15.5 15.5, 0, 0, 0, 0 -31" transform="rotate(180,263.5,325.5)"/><rect x="248" y="372" width="31" height="31" transform="rotate(0,263.5,387.5)"/><rect x="248" y="434" width="31" height="31" transform="rotate(0,263.5,449.5)"/><circle cx="263.5" cy="511.5" r="15.5" transform="rotate(0,263.5,511.5)"/><rect x="248" y="558" width="31" height="31" transform="rotate(0,263.5,573.5)"/><path d="M 248 620v 31h 15.5a 15.5 15.5, 0, 0, 0, 0 -31" transform="rotate(0,263.5,635.5)"/><path d="M 248 682v 31h 15.5a 15.5 15.5, 0, 0, 0, 0 -31" transform="rotate(180,263.5,697.5)"/><rect x="279" y="310" width="31" height="31" transform="rotate(0,294.5,325.5)"/><rect x="279" y="341" width="31" height="31" transform="rotate(0,294.5,356.5)"/><rect x="279" y="372" width="31" height="31" transform="rotate(0,294.5,387.5)"/><rect x="279" y="434" width="31" height="31" transform="rotate(0,294.5,449.5)"/><path d="M 279 527v 31h 15.5a 15.5 15.5, 0, 0, 0, 0 -31" transform="rotate(-90,294.5,542.5)"/><rect x="279" y="558" width="31" height="31" transform="rotate(0,294.5,573.5)"/><path d="M 279 682v 31h 15.5a 15.5 15.5, 0, 0, 0, 0 -31" transform="rotate(0,294.5,697.5)"/><circle cx="325.5" cy="108.5" r="15.5" transform="rotate(0,325.5,108.5)"/><path d="M 310 155v 31h 15.5a 15.5 15.5, 0, 0, 0, 0 -31" transform="rotate(-90,325.5,170.5)"/><rect x="310" y="186" width="31" height="31" transform="rotate(0,325.5,201.5)"/><rect x="310" y="217" width="31" height="31" transform="rotate(0,325.5,232.5)"/><path d="M 310 248v 31h 15.5a 15.5 15.5, 0, 0, 0, 0 -31" transform="rotate(90,325.5,263.5)"/><rect x="310" y="310" width="31" height="31" transform="rotate(0,325.5,325.5)"/><rect x="310" y="341" width="31" height="31" transform="rotate(0,325.5,356.5)"/><rect x="310" y="372" width="31" height="31" transform="rotate(0,325.5,387.5)"/><rect x="310" y="403" width="31" height="31" transform="rotate(0,325.5,418.5)"/><path d="M 310 434v 31h 31v -15.5a 15.5 15.5, 0, 0, 0, -15.5 -15.5" transform="rotate(90,325.5,449.5)"/><rect x="310" y="558" width="31" height="31" transform="rotate(0,325.5,573.5)"/><path d="M 310 620v 31h 15.5a 15.5 15.5, 0, 0, 0, 0 -31" transform="rotate(-90,325.5,635.5)"/><path d="M 310 651v 31h 15.5a 15.5 15.5, 0, 0, 0, 0 -31" transform="rotate(90,325.5,666.5)"/><path d="M 310 713v 31h 15.5a 15.5 15.5, 0, 0, 0, 0 -31" transform="rotate(-90,325.5,728.5)"/><path d="M 310 744v 31h 15.5a 15.5 15.5, 0, 0, 0, 0 -31" transform="rotate(90,325.5,759.5)"/><path d="M 310 806v 31h 31v -15.5a 15.5 15.5, 0, 0, 0, -15.5 -15.5" transform="rotate(-90,325.5,821.5)"/><path d="M 310 837v 31h 31v -15.5a 15.5 15.5, 0, 0, 0, -15.5 -15.5" transform="rotate(180,325.5,852.5)"/><path d="M 310 899v 31h 15.5a 15.5 15.5, 0, 0, 0, 0 -31" transform="rotate(180,325.5,914.5)"/><path d="M 341 124v 31h 15.5a 15.5 15.5, 0, 0, 0, 0 -31" transform="rotate(180,356.5,139.5)"/><path d="M 341 279v 31h 15.5a 15.5 15.5, 0, 0, 0, 0 -31" transform="rotate(-90,356.5,294.5)"/><rect x="341" y="310" width="31" height="31" transform="rotate(0,356.5,325.5)"/><rect x="341" y="341" width="31" height="31" transform="rotate(0,356.5,356.5)"/><rect x="341" y="372" width="31" height="31" transform="rotate(0,356.5,387.5)"/><path d="M 341 465v 31h 31v -15.5a 15.5 15.5, 0, 0, 0, -15.5 -15.5" transform="rotate(-90,356.5,480.5)"/><rect x="341" y="496" width="31" height="31" transform="rotate(0,356.5,511.5)"/><rect x="341" y="527" width="31" height="31" transform="rotate(0,356.5,542.5)"/><rect x="341" y="558" width="31" height="31" transform="rotate(0,356.5,573.5)"/><path d="M 341 589v 31h 31v -15.5a 15.5 15.5, 0, 0, 0, -15.5 -15.5" transform="rotate(180,356.5,604.5)"/><circle cx="356.5" cy="697.5" r="15.5" transform="rotate(0,356.5,697.5)"/><path d="M 341 775v 31h 31v -15.5a 15.5 15.5, 0, 0, 0, -15.5 -15.5" transform="rotate(-90,356.5,790.5)"/><rect x="341" y="806" width="31" height="31" transform="rotate(0,356.5,821.5)"/><rect x="341" y="837" width="31" height="31" transform="rotate(0,356.5,852.5)"/><path d="M 341 899v 31h 15.5a 15.5 15.5, 0, 0, 0, 0 -31" transform="rotate(0,356.5,914.5)"/><path d="M 372 124v 31h 31v -15.5a 15.5 15.5, 0, 0, 0, -15.5 -15.5" transform="rotate(0,387.5,139.5)"/><rect x="372" y="155" width="31" height="31" transform="rotate(0,387.5,170.5)"/><path d="M 372 186v 31h 15.5a 15.5 15.5, 0, 0, 0, 0 -31" transform="rotate(90,387.5,201.5)"/><circle cx="387.5" cy="263.5" r="15.5" transform="rotate(0,387.5,263.5)"/><path d="M 372 310v 31h 15.5a 15.5 15.5, 0, 0, 0, 0 -31" transform="rotate(0,387.5,325.5)"/><rect x="372" y="372" width="31" height="31" transform="rotate(0,387.5,387.5)"/><rect x="372" y="465" width="31" height="31" transform="rotate(0,387.5,480.5)"/><rect x="372" y="589" width="31" height="31" transform="rotate(0,387.5,604.5)"/><path d="M 372 620v 31h 15.5a 15.5 15.5, 0, 0, 0, 0 -31" transform="rotate(90,387.5,635.5)"/><path d="M 372 713v 31h 15.5a 15.5 15.5, 0, 0, 0, 0 -31" transform="rotate(-90,387.5,728.5)"/><rect x="372" y="744" width="31" height="31" transform="rotate(0,387.5,759.5)"/><rect x="372" y="775" width="31" height="31" transform="rotate(0,387.5,790.5)"/><rect x="372" y="806" width="31" height="31" transform="rotate(0,387.5,821.5)"/><rect x="372" y="837" width="31" height="31" transform="rotate(0,387.5,852.5)"/><path d="M 403 93v 31h 15.5a 15.5 15.5, 0, 0, 0, 0 -31" transform="rotate(180,418.5,108.5)"/><rect x="403" y="155" width="31" height="31" transform="rotate(0,418.5,170.5)"/><rect x="403" y="372" width="31" height="31" transform="rotate(0,418.5,387.5)"/><rect x="403" y="465" width="31" height="31" transform="rotate(0,418.5,480.5)"/><circle cx="418.5" cy="542.5" r="15.5" transform="rotate(0,418.5,542.5)"/><path d="M 403 589v 31h 15.5a 15.5 15.5, 0, 0, 0, 0 -31" transform="rotate(0,418.5,604.5)"/><circle cx="418.5" cy="697.5" r="15.5" transform="rotate(0,418.5,697.5)"/><path d="M 403 806v 31h 31v -15.5a 15.5 15.5, 0, 0, 0, -15.5 -15.5" transform="rotate(0,418.5,821.5)"/><rect x="403" y="837" width="31" height="31" transform="rotate(0,418.5,852.5)"/><circle cx="418.5" cy="945.5" r="15.5" transform="rotate(0,418.5,945.5)"/><path d="M 434 93v 31h 31v -15.5a 15.5 15.5, 0, 0, 0, -15.5 -15.5" transform="rotate(0,449.5,108.5)"/><rect x="434" y="124" width="31" height="31" transform="rotate(0,449.5,139.5)"/><path d="M 434 155v 31h 31v -15.5a 15.5 15.5, 0, 0, 0, -15.5 -15.5" transform="rotate(90,449.5,170.5)"/><path d="M 434 217v 31h 31v -15.5a 15.5 15.5, 0, 0, 0, -15.5 -15.5" transform="rotate(-90,449.5,232.5)"/><path d="M 434 248v 31h 15.5a 15.5 15.5, 0, 0, 0, 0 -31" transform="rotate(90,449.5,263.5)"/><path d="M 434 310v 31h 31v -15.5a 15.5 15.5, 0, 0, 0, -15.5 -15.5" transform="rotate(-90,449.5,325.5)"/><rect x="434" y="341" width="31" height="31" transform="rotate(0,449.5,356.5)"/><path d="M 434 372v 31h 31v -15.5a 15.5 15.5, 0, 0, 0, -15.5 -15.5" transform="rotate(90,449.5,387.5)"/><path d="M 434 465v 31h 15.5a 15.5 15.5, 0, 0, 0, 0 -31" transform="rotate(0,449.5,480.5)"/><path d="M 434 620v 31h 31v -15.5a 15.5 15.5, 0, 0, 0, -15.5 -15.5" transform="rotate(-90,449.5,635.5)"/><path d="M 434 651v 31h 15.5a 15.5 15.5, 0, 0, 0, 0 -31" transform="rotate(90,449.5,666.5)"/><path d="M 434 713v 31h 15.5a 15.5 15.5, 0, 0, 0, 0 -31" transform="rotate(-90,449.5,728.5)"/><path d="M 434 744v 31h 31v -15.5a 15.5 15.5, 0, 0, 0, -15.5 -15.5" transform="rotate(180,449.5,759.5)"/><path d="M 434 837v 31h 15.5a 15.5 15.5, 0, 0, 0, 0 -31" transform="rotate(0,449.5,852.5)"/><circle cx="449.5" cy="914.5" r="15.5" transform="rotate(0,449.5,914.5)"/><circle cx="480.5" cy="77.5" r="15.5" transform="rotate(0,480.5,77.5)"/><path d="M 465 124v 31h 15.5a 15.5 15.5, 0, 0, 0, 0 -31" transform="rotate(0,480.5,139.5)"/><path d="M 465 217v 31h 15.5a 15.5 15.5, 0, 0, 0, 0 -31" transform="rotate(0,480.5,232.5)"/><path d="M 465 279v 31h 15.5a 15.5 15.5, 0, 0, 0, 0 -31" transform="rotate(-90,480.5,294.5)"/><path d="M 465 310v 31h 31v -15.5a 15.5 15.5, 0, 0, 0, -15.5 -15.5" transform="rotate(90,480.5,325.5)"/><circle cx="480.5" cy="418.5" r="15.5" transform="rotate(0,480.5,418.5)"/><circle cx="480.5" cy="542.5" r="15.5" transform="rotate(0,480.5,542.5)"/><path d="M 465 589v 31h 31v -15.5a 15.5 15.5, 0, 0, 0, -15.5 -15.5" transform="rotate(-90,480.5,604.5)"/><path d="M 465 620v 31h 31v -15.5a 15.5 15.5, 0, 0, 0, -15.5 -15.5" transform="rotate(90,480.5,635.5)"/><rect x="465" y="744" width="31" height="31" transform="rotate(0,480.5,759.5)"/><circle cx="480.5" cy="821.5" r="15.5" transform="rotate(0,480.5,821.5)"/><circle cx="480.5" cy="883.5" r="15.5" transform="rotate(0,480.5,883.5)"/><path d="M 496 93v 31h 15.5a 15.5 15.5, 0, 0, 0, 0 -31" transform="rotate(180,511.5,108.5)"/><path d="M 496 155v 31h 31v -15.5a 15.5 15.5, 0, 0, 0, -15.5 -15.5" transform="rotate(-90,511.5,170.5)"/><path d="M 496 186v 31h 31v -15.5a 15.5 15.5, 0, 0, 0, -15.5 -15.5" transform="rotate(180,511.5,201.5)"/><circle cx="511.5" cy="263.5" r="15.5" transform="rotate(0,511.5,263.5)"/><path d="M 496 341v 31h 31v -15.5a 15.5 15.5, 0, 0, 0, -15.5 -15.5" transform="rotate(-90,511.5,356.5)"/><path d="M 496 372v 31h 31v -15.5a 15.5 15.5, 0, 0, 0, -15.5 -15.5" transform="rotate(180,511.5,387.5)"/><circle cx="511.5" cy="449.5" r="15.5" transform="rotate(0,511.5,449.5)"/><path d="M 496 558v 31h 15.5a 15.5 15.5, 0, 0, 0, 0 -31" transform="rotate(-90,511.5,573.5)"/><rect x="496" y="589" width="31" height="31" transform="rotate(0,511.5,604.5)"/><path d="M 496 651v 31h 15.5a 15.5 15.5, 0, 0, 0, 0 -31" transform="rotate(-90,511.5,666.5)"/><path d="M 496 682v 31h 31v -15.5a 15.5 15.5, 0, 0, 0, -15.5 -15.5" transform="rotate(180,511.5,697.5)"/><path d="M 496 744v 31h 31v -15.5a 15.5 15.5, 0, 0, 0, -15.5 -15.5" transform="rotate(0,511.5,759.5)"/><path d="M 496 775v 31h 15.5a 15.5 15.5, 0, 0, 0, 0 -31" transform="rotate(90,511.5,790.5)"/><path d="M 496 837v 31h 15.5a 15.5 15.5, 0, 0, 0, 0 -31" transform="rotate(180,511.5,852.5)"/><path d="M 496 930v 31h 15.5a 15.5 15.5, 0, 0, 0, 0 -31" transform="rotate(180,511.5,945.5)"/><path d="M 527 62v 31h 15.5a 15.5 15.5, 0, 0, 0, 0 -31" transform="rotate(-90,542.5,77.5)"/><rect x="527" y="93" width="31" height="31" transform="rotate(0,542.5,108.5)"/><rect x="527" y="124" width="31" height="31" transform="rotate(0,542.5,139.5)"/><rect x="527" y="155" width="31" height="31" transform="rotate(0,542.5,170.5)"/><rect x="527" y="186" width="31" height="31" transform="rotate(0,542.5,201.5)"/><path d="M 527 217v 31h 15.5a 15.5 15.5, 0, 0, 0, 0 -31" transform="rotate(90,542.5,232.5)"/><path d="M 527 279v 31h 15.5a 15.5 15.5, 0, 0, 0, 0 -31" transform="rotate(-90,542.5,294.5)"/><rect x="527" y="310" width="31" height="31" transform="rotate(0,542.5,325.5)"/><rect x="527" y="341" width="31" height="31" transform="rotate(0,542.5,356.5)"/><rect x="527" y="372" width="31" height="31" transform="rotate(0,542.5,387.5)"/><path d="M 527 465v 31h 15.5a 15.5 15.5, 0, 0, 0, 0 -31" transform="rotate(180,542.5,480.5)"/><path d="M 527 527v 31h 15.5a 15.5 15.5, 0, 0, 0, 0 -31" transform="rotate(180,542.5,542.5)"/><rect x="527" y="589" width="31" height="31" transform="rotate(0,542.5,604.5)"/><path d="M 527 620v 31h 15.5a 15.5 15.5, 0, 0, 0, 0 -31" transform="rotate(90,542.5,635.5)"/><rect x="527" y="682" width="31" height="31" transform="rotate(0,542.5,697.5)"/><path d="M 527 713v 31h 15.5a 15.5 15.5, 0, 0, 0, 0 -31" transform="rotate(90,542.5,728.5)"/><path d="M 527 806v 31h 31v -15.5a 15.5 15.5, 0, 0, 0, -15.5 -15.5" transform="rotate(-90,542.5,821.5)"/><rect x="527" y="837" width="31" height="31" transform="rotate(0,542.5,852.5)"/><rect x="527" y="868" width="31" height="31" transform="rotate(0,542.5,883.5)"/><rect x="527" y="899" width="31" height="31" transform="rotate(0,542.5,914.5)"/><path d="M 527 930v 31h 31v -15.5a 15.5 15.5, 0, 0, 0, -15.5 -15.5" transform="rotate(90,542.5,945.5)"/><path d="M 558 93v 31h 31v -15.5a 15.5 15.5, 0, 0, 0, -15.5 -15.5" transform="rotate(0,573.5,108.5)"/><rect x="558" y="124" width="31" height="31" transform="rotate(0,573.5,139.5)"/><rect x="558" y="155" width="31" height="31" transform="rotate(0,573.5,170.5)"/><rect x="558" y="186" width="31" height="31" transform="rotate(0,573.5,201.5)"/><circle cx="573.5" cy="263.5" r="15.5" transform="rotate(0,573.5,263.5)"/><path d="M 558 341v 31h 31v -15.5a 15.5 15.5, 0, 0, 0, -15.5 -15.5" transform="rotate(0,573.5,356.5)"/><rect x="558" y="372" width="31" height="31" transform="rotate(0,573.5,387.5)"/><path d="M 558 434v 31h 31v -15.5a 15.5 15.5, 0, 0, 0, -15.5 -15.5" transform="rotate(-90,573.5,449.5)"/><rect x="558" y="465" width="31" height="31" transform="rotate(0,573.5,480.5)"/><rect x="558" y="496" width="31" height="31" transform="rotate(0,573.5,511.5)"/><rect x="558" y="527" width="31" height="31" transform="rotate(0,573.5,542.5)"/><rect x="558" y="558" width="31" height="31" transform="rotate(0,573.5,573.5)"/><path d="M 558 589v 31h 31v -15.5a 15.5 15.5, 0, 0, 0, -15.5 -15.5" transform="rotate(90,573.5,604.5)"/><rect x="558" y="682" width="31" height="31" transform="rotate(0,573.5,697.5)"/><rect x="558" y="806" width="31" height="31" transform="rotate(0,573.5,821.5)"/><rect x="558" y="837" width="31" height="31" transform="rotate(0,573.5,852.5)"/><path d="M 558 899v 31h 15.5a 15.5 15.5, 0, 0, 0, 0 -31" transform="rotate(0,573.5,914.5)"/><path d="M 589 62v 31h 15.5a 15.5 15.5, 0, 0, 0, 0 -31" transform="rotate(180,604.5,77.5)"/><path d="M 589 124v 31h 31v -15.5a 15.5 15.5, 0, 0, 0, -15.5 -15.5" transform="rotate(0,604.5,139.5)"/><rect x="589" y="155" width="31" height="31" transform="rotate(0,604.5,170.5)"/><rect x="589" y="186" width="31" height="31" transform="rotate(0,604.5,201.5)"/><circle cx="604.5" cy="294.5" r="15.5" transform="rotate(0,604.5,294.5)"/><path d="M 589 372v 31h 31v -15.5a 15.5 15.5, 0, 0, 0, -15.5 -15.5" transform="rotate(0,604.5,387.5)"/><rect x="589" y="403" width="31" height="31" transform="rotate(0,604.5,418.5)"/><rect x="589" y="434" width="31" height="31" transform="rotate(0,604.5,449.5)"/><path d="M 589 465v 31h 31v -15.5a 15.5 15.5, 0, 0, 0, -15.5 -15.5" transform="rotate(90,604.5,480.5)"/><path d="M 589 558v 31h 15.5a 15.5 15.5, 0, 0, 0, 0 -31" transform="rotate(0,604.5,573.5)"/><path d="M 589 620v 31h 15.5a 15.5 15.5, 0, 0, 0, 0 -31" transform="rotate(-90,604.5,635.5)"/><rect x="589" y="651" width="31" height="31" transform="rotate(0,604.5,666.5)"/><rect x="589" y="682" width="31" height="31" transform="rotate(0,604.5,697.5)"/><rect x="589" y="806" width="31" height="31" transform="rotate(0,604.5,821.5)"/><rect x="589" y="837" width="31" height="31" transform="rotate(0,604.5,852.5)"/><path d="M 589 868v 31h 15.5a 15.5 15.5, 0, 0, 0, 0 -31" transform="rotate(90,604.5,883.5)"/><rect x="620" y="62" width="31" height="31" transform="rotate(0,635.5,77.5)"/><path d="M 620 93v 31h 31v -15.5a 15.5 15.5, 0, 0, 0, -15.5 -15.5" transform="rotate(180,635.5,108.5)"/><path d="M 620 186v 31h 31v -15.5a 15.5 15.5, 0, 0, 0, -15.5 -15.5" transform="rotate(0,635.5,201.5)"/><rect x="620" y="217" width="31" height="31" transform="rotate(0,635.5,232.5)"/><path d="M 620 248v 31h 15.5a 15.5 15.5, 0, 0, 0, 0 -31" transform="rotate(90,635.5,263.5)"/><path d="M 620 341v 31h 15.5a 15.5 15.5, 0, 0, 0, 0 -31" transform="rotate(180,635.5,356.5)"/><circle cx="635.5" cy="542.5" r="15.5" transform="rotate(0,635.5,542.5)"/><path d="M 620 651v 31h 31v -15.5a 15.5 15.5, 0, 0, 0, -15.5 -15.5" transform="rotate(0,635.5,666.5)"/><path d="M 620 682v 31h 31v -15.5a 15.5 15.5, 0, 0, 0, -15.5 -15.5" transform="rotate(90,635.5,697.5)"/><path d="M 620 806v 31h 15.5a 15.5 15.5, 0, 0, 0, 0 -31" transform="rotate(0,635.5,821.5)"/><path d="M 620 930v 31h 15.5a 15.5 15.5, 0, 0, 0, 0 -31" transform="rotate(180,635.5,945.5)"/><rect x="651" y="62" width="31" height="31" transform="rotate(0,666.5,77.5)"/><rect x="651" y="93" width="31" height="31" transform="rotate(0,666.5,108.5)"/><path d="M 651 217v 31h 15.5a 15.5 15.5, 0, 0, 0, 0 -31" transform="rotate(0,666.5,232.5)"/><circle cx="666.5" cy="294.5" r="15.5" transform="rotate(0,666.5,294.5)"/><rect x="651" y="341" width="31" height="31" transform="rotate(0,666.5,356.5)"/><path d="M 651 403v 31h 31v -15.5a 15.5 15.5, 0, 0, 0, -15.5 -15.5" transform="rotate(-90,666.5,418.5)"/><path d="M 651 434v 31h 31v -15.5a 15.5 15.5, 0, 0, 0, -15.5 -15.5" transform="rotate(180,666.5,449.5)"/><circle cx="666.5" cy="635.5" r="15.5" transform="rotate(0,666.5,635.5)"/><path d="M 651 713v 31h 31v -15.5a 15.5 15.5, 0, 0, 0, -15.5 -15.5" transform="rotate(-90,666.5,728.5)"/><path d="M 651 744v 31h 31v -15.5a 15.5 15.5, 0, 0, 0, -15.5 -15.5" transform="rotate(180,666.5,759.5)"/><circle cx="666.5" cy="883.5" r="15.5" transform="rotate(0,666.5,883.5)"/><path d="M 651 930v 31h 15.5a 15.5 15.5, 0, 0, 0, 0 -31" transform="rotate(0,666.5,945.5)"/><path d="M 682 62v 31h 31v -15.5a 15.5 15.5, 0, 0, 0, -15.5 -15.5" transform="rotate(0,697.5,77.5)"/><path d="M 682 93v 31h 31v -15.5a 15.5 15.5, 0, 0, 0, -15.5 -15.5" transform="rotate(90,697.5,108.5)"/><circle cx="697.5" cy="170.5" r="15.5" transform="rotate(0,697.5,170.5)"/><circle cx="697.5" cy="263.5" r="15.5" transform="rotate(0,697.5,263.5)"/><rect x="682" y="341" width="31" height="31" transform="rotate(0,697.5,356.5)"/><rect x="682" y="372" width="31" height="31" transform="rotate(0,697.5,387.5)"/><rect x="682" y="403" width="31" height="31" transform="rotate(0,697.5,418.5)"/><rect x="682" y="434" width="31" height="31" transform="rotate(0,697.5,449.5)"/><rect x="682" y="465" width="31" height="31" transform="rotate(0,697.5,480.5)"/><rect x="682" y="496" width="31" height="31" transform="rotate(0,697.5,511.5)"/><rect x="682" y="527" width="31" height="31" transform="rotate(0,697.5,542.5)"/><rect x="682" y="558" width="31" height="31" transform="rotate(0,697.5,573.5)"/><path d="M 682 589v 31h 15.5a 15.5 15.5, 0, 0, 0, 0 -31" transform="rotate(90,697.5,604.5)"/><path d="M 682 651v 31h 31v -15.5a 15.5 15.5, 0, 0, 0, -15.5 -15.5" transform="rotate(-90,697.5,666.5)"/><rect x="682" y="682" width="31" height="31" transform="rotate(0,697.5,697.5)"/><rect x="682" y="713" width="31" height="31" transform="rotate(0,697.5,728.5)"/><rect x="682" y="744" width="31" height="31" transform="rotate(0,697.5,759.5)"/><rect x="682" y="775" width="31" height="31" transform="rotate(0,697.5,790.5)"/><rect x="682" y="806" width="31" height="31" transform="rotate(0,697.5,821.5)"/><path d="M 682 837v 31h 31v -15.5a 15.5 15.5, 0, 0, 0, -15.5 -15.5" transform="rotate(180,697.5,852.5)"/><path d="M 682 899v 31h 15.5a 15.5 15.5, 0, 0, 0, 0 -31" transform="rotate(180,697.5,914.5)"/><path d="M 713 310v 31h 15.5a 15.5 15.5, 0, 0, 0, 0 -31" transform="rotate(-90,728.5,325.5)"/><rect x="713" y="341" width="31" height="31" transform="rotate(0,728.5,356.5)"/><rect x="713" y="372" width="31" height="31" transform="rotate(0,728.5,387.5)"/><rect x="713" y="403" width="31" height="31" transform="rotate(0,728.5,418.5)"/><rect x="713" y="527" width="31" height="31" transform="rotate(0,728.5,542.5)"/><rect x="713" y="558" width="31" height="31" transform="rotate(0,728.5,573.5)"/><path d="M 713 620v 31h 31v -15.5a 15.5 15.5, 0, 0, 0, -15.5 -15.5" transform="rotate(-90,728.5,635.5)"/><rect x="713" y="651" width="31" height="31" transform="rotate(0,728.5,666.5)"/><rect x="713" y="682" width="31" height="31" transform="rotate(0,728.5,697.5)"/><rect x="713" y="806" width="31" height="31" transform="rotate(0,728.5,821.5)"/><rect x="713" y="837" width="31" height="31" transform="rotate(0,728.5,852.5)"/><rect x="713" y="868" width="31" height="31" transform="rotate(0,728.5,883.5)"/><rect x="713" y="899" width="31" height="31" transform="rotate(0,728.5,914.5)"/><path d="M 744 341v 31h 31v -15.5a 15.5 15.5, 0, 0, 0, -15.5 -15.5" transform="rotate(0,759.5,356.5)"/><rect x="744" y="372" width="31" height="31" transform="rotate(0,759.5,387.5)"/><path d="M 744 403v 31h 31v -15.5a 15.5 15.5, 0, 0, 0, -15.5 -15.5" transform="rotate(90,759.5,418.5)"/><path d="M 744 465v 31h 15.5a 15.5 15.5, 0, 0, 0, 0 -31" transform="rotate(180,759.5,480.5)"/><rect x="744" y="527" width="31" height="31" transform="rotate(0,759.5,542.5)"/><rect x="744" y="558" width="31" height="31" transform="rotate(0,759.5,573.5)"/><rect x="744" y="589" width="31" height="31" transform="rotate(0,759.5,604.5)"/><rect x="744" y="620" width="31" height="31" transform="rotate(0,759.5,635.5)"/><rect x="744" y="651" width="31" height="31" transform="rotate(0,759.5,666.5)"/><rect x="744" y="682" width="31" height="31" transform="rotate(0,759.5,697.5)"/><circle cx="759.5" cy="759.5" r="15.5" transform="rotate(0,759.5,759.5)"/><rect x="744" y="806" width="31" height="31" transform="rotate(0,759.5,821.5)"/><path d="M 744 868v 31h 31v -15.5a 15.5 15.5, 0, 0, 0, -15.5 -15.5" transform="rotate(0,759.5,883.5)"/><rect x="744" y="899" width="31" height="31" transform="rotate(0,759.5,914.5)"/><path d="M 775 310v 31h 15.5a 15.5 15.5, 0, 0, 0, 0 -31" transform="rotate(180,790.5,325.5)"/><path d="M 775 434v 31h 15.5a 15.5 15.5, 0, 0, 0, 0 -31" transform="rotate(-90,790.5,449.5)"/><rect x="775" y="465" width="31" height="31" transform="rotate(0,790.5,480.5)"/><path d="M 775 527v 31h 15.5a 15.5 15.5, 0, 0, 0, 0 -31" transform="rotate(0,790.5,542.5)"/><rect x="775" y="589" width="31" height="31" transform="rotate(0,790.5,604.5)"/><rect x="775" y="651" width="31" height="31" transform="rotate(0,790.5,666.5)"/><rect x="775" y="682" width="31" height="31" transform="rotate(0,790.5,697.5)"/><rect x="775" y="806" width="31" height="31" transform="rotate(0,790.5,821.5)"/><path d="M 775 837v 31h 15.5a 15.5 15.5, 0, 0, 0, 0 -31" transform="rotate(90,790.5,852.5)"/><path d="M 775 899v 31h 15.5a 15.5 15.5, 0, 0, 0, 0 -31" transform="rotate(0,790.5,914.5)"/><rect x="806" y="310" width="31" height="31" transform="rotate(0,821.5,325.5)"/><path d="M 806 372v 31h 15.5a 15.5 15.5, 0, 0, 0, 0 -31" transform="rotate(180,821.5,387.5)"/><path d="M 806 465v 31h 31v -15.5a 15.5 15.5, 0, 0, 0, -15.5 -15.5" transform="rotate(0,821.5,480.5)"/><path d="M 806 496v 31h 15.5a 15.5 15.5, 0, 0, 0, 0 -31" transform="rotate(90,821.5,511.5)"/><path d="M 806 558v 31h 31v -15.5a 15.5 15.5, 0, 0, 0, -15.5 -15.5" transform="rotate(-90,821.5,573.5)"/><rect x="806" y="589" width="31" height="31" transform="rotate(0,821.5,604.5)"/><rect x="806" y="620" width="31" height="31" transform="rotate(0,821.5,635.5)"/><rect x="806" y="651" width="31" height="31" transform="rotate(0,821.5,666.5)"/><rect x="806" y="682" width="31" height="31" transform="rotate(0,821.5,697.5)"/><rect x="806" y="713" width="31" height="31" transform="rotate(0,821.5,728.5)"/><rect x="806" y="744" width="31" height="31" transform="rotate(0,821.5,759.5)"/><rect x="806" y="775" width="31" height="31" transform="rotate(0,821.5,790.5)"/><path d="M 806 806v 31h 31v -15.5a 15.5 15.5, 0, 0, 0, -15.5 -15.5" transform="rotate(90,821.5,821.5)"/><path d="M 837 310v 31h 15.5a 15.5 15.5, 0, 0, 0, 0 -31" transform="rotate(0,852.5,325.5)"/><path d="M 837 372v 31h 15.5a 15.5 15.5, 0, 0, 0, 0 -31" transform="rotate(0,852.5,387.5)"/><path d="M 837 434v 31h 15.5a 15.5 15.5, 0, 0, 0, 0 -31" transform="rotate(180,852.5,449.5)"/><rect x="837" y="558" width="31" height="31" transform="rotate(0,852.5,573.5)"/><path d="M 837 589v 31h 31v -15.5a 15.5 15.5, 0, 0, 0, -15.5 -15.5" transform="rotate(90,852.5,604.5)"/><rect x="837" y="775" width="31" height="31" transform="rotate(0,852.5,790.5)"/><path d="M 837 837v 31h 15.5a 15.5 15.5, 0, 0, 0, 0 -31" transform="rotate(-90,852.5,852.5)"/><rect x="837" y="868" width="31" height="31" transform="rotate(0,852.5,883.5)"/><path d="M 837 899v 31h 31v -15.5a 15.5 15.5, 0, 0, 0, -15.5 -15.5" transform="rotate(180,852.5,914.5)"/><path d="M 868 403v 31h 31v -15.5a 15.5 15.5, 0, 0, 0, -15.5 -15.5" transform="rotate(-90,883.5,418.5)"/><rect x="868" y="434" width="31" height="31" transform="rotate(0,883.5,449.5)"/><circle cx="883.5" cy="511.5" r="15.5" transform="rotate(0,883.5,511.5)"/><path d="M 868 558v 31h 15.5a 15.5 15.5, 0, 0, 0, 0 -31" transform="rotate(0,883.5,573.5)"/><circle cx="883.5" cy="635.5" r="15.5" transform="rotate(0,883.5,635.5)"/><path d="M 868 682v 31h 15.5a 15.5 15.5, 0, 0, 0, 0 -31" transform="rotate(-90,883.5,697.5)"/><path d="M 868 713v 31h 31v -15.5a 15.5 15.5, 0, 0, 0, -15.5 -15.5" transform="rotate(180,883.5,728.5)"/><path d="M 868 775v 31h 31v -15.5a 15.5 15.5, 0, 0, 0, -15.5 -15.5" transform="rotate(0,883.5,790.5)"/><path d="M 868 806v 31h 31v -15.5a 15.5 15.5, 0, 0, 0, -15.5 -15.5" transform="rotate(180,883.5,821.5)"/><rect x="868" y="868" width="31" height="31" transform="rotate(0,883.5,883.5)"/><rect x="868" y="899" width="31" height="31" transform="rotate(0,883.5,914.5)"/><path d="M 868 930v 31h 31v -15.5a 15.5 15.5, 0, 0, 0, -15.5 -15.5" transform="rotate(180,883.5,945.5)"/><circle cx="914.5" cy="325.5" r="15.5" transform="rotate(0,914.5,325.5)"/><path d="M 899 403v 31h 31v -15.5a 15.5 15.5, 0, 0, 0, -15.5 -15.5" transform="rotate(0,914.5,418.5)"/><path d="M 899 434v 31h 31v -15.5a 15.5 15.5, 0, 0, 0, -15.5 -15.5" transform="rotate(90,914.5,449.5)"/><circle cx="914.5" cy="542.5" r="15.5" transform="rotate(0,914.5,542.5)"/><path d="M 899 651v 31h 15.5a 15.5 15.5, 0, 0, 0, 0 -31" transform="rotate(180,914.5,666.5)"/><path d="M 899 713v 31h 31v -15.5a 15.5 15.5, 0, 0, 0, -15.5 -15.5" transform="rotate(0,914.5,728.5)"/><path d="M 899 744v 31h 31v -15.5a 15.5 15.5, 0, 0, 0, -15.5 -15.5" transform="rotate(180,914.5,759.5)"/><rect x="899" y="806" width="31" height="31" transform="rotate(0,914.5,821.5)"/><path d="M 899 868v 31h 15.5a 15.5 15.5, 0, 0, 0, 0 -31" transform="rotate(0,914.5,883.5)"/><path d="M 899 930v 31h 15.5a 15.5 15.5, 0, 0, 0, 0 -31" transform="rotate(0,914.5,945.5)"/><path d="M 930 465v 31h 15.5a 15.5 15.5, 0, 0, 0, 0 -31" transform="rotate(-90,945.5,480.5)"/><path d="M 930 496v 31h 15.5a 15.5 15.5, 0, 0, 0, 0 -31" transform="rotate(90,945.5,511.5)"/><path d="M 930 651v 31h 31v -15.5a 15.5 15.5, 0, 0, 0, -15.5 -15.5" transform="rotate(0,945.5,666.5)"/><path d="M 930 682v 31h 15.5a 15.5 15.5, 0, 0, 0, 0 -31" transform="rotate(90,945.5,697.5)"/><path d="M 930 744v 31h 31v -15.5a 15.5 15.5, 0, 0, 0, -15.5 -15.5" transform="rotate(0,945.5,759.5)"/><rect x="930" y="775" width="31" height="31" transform="rotate(0,945.5,790.5)"/><rect x="930" y="806" width="31" height="31" transform="rotate(0,945.5,821.5)"/><path d="M 930 837v 31h 15.5a 15.5 15.5, 0, 0, 0, 0 -31" transform="rotate(90,945.5,852.5)"/></clipPath><clipPath id="clip-path-corners-square-color-0-0"><path d="m 62 62 m 147.198 0 h -147.198 v 147.198 c 0 38.518 31.284 69.802 69.802 69.802 h 147.198 v -147.198 c 0 -38.517 -31.284 -69.802 -69.802 -69.802 z m 42.677 189.875 h -120.073 c -23.508 0 -42.677 -19.168 -42.677 -42.677 v -120.073 h 120.073 c 23.508 0 42.677 19.168 42.677 42.677 v 120.073 z"/></clipPath><clipPath id="clip-path-corners-dot-color-0-0"><path d="m 124 124 m 0 0 h 46.5 c 25.708 0 46.5 20.792 46.5 46.5 v 46.5 h -46.5 c -25.708 0 -46.5 -20.792 -46.5 -46.5 v -46.5 z"/></clipPath><clipPath id="clip-path-corners-square-color-1-0"><path d="m 744 62 m 147.198 0 h -147.198 v 147.198 c 0 38.518 31.284 69.802 69.802 69.802 h 147.198 v -147.198 c 0 -38.517 -31.284 -69.802 -69.802 -69.802 z m 42.677 189.875 h -120.073 c -23.508 0 -42.677 -19.168 -42.677 -42.677 v -120.073 h 120.073 c 23.508 0 42.677 19.168 42.677 42.677 v 120.073 z"/></clipPath><clipPath id="clip-path-corners-dot-color-1-0"><path d="m 806 124 m 0 0 h 46.5 c 25.708 0 46.5 20.792 46.5 46.5 v 46.5 h -46.5 c -25.708 0 -46.5 -20.792 -46.5 -46.5 v -46.5 z"/></clipPath><clipPath id="clip-path-corners-square-color-0-1"><path d="m 62 744 m 147.198 0 h -147.198 v 147.198 c 0 38.518 31.284 69.802 69.802 69.802 h 147.198 v -147.198 c 0 -38.517 -31.284 -69.802 -69.802 -69.802 z m 42.677 189.875 h -120.073 c -23.508 0 -42.677 -19.168 -42.677 -42.677 v -120.073 h 120.073 c 23.508 0 42.677 19.168 42.677 42.677 v 120.073 z"/></clipPath><clipPath id="clip-path-corners-dot-color-0-1"><path d="m 124 806 m 0 0 h 46.5 c 25.708 0 46.5 20.792 46.5 46.5 v 46.5 h -46.5 c -25.708 0 -46.5 -20.792 -46.5 -46.5 v -46.5 z"/></clipPath></defs><rect x="0" y="0" height="1024" width="1024" clip-path="url('#clip-path-background-color')" fill="#ffffff"/><rect x="62" y="62" height="899" width="899" clip-path="url('#clip-path-dot-color')" fill="#540e22"/><rect x="62" y="62" height="217" width="217" clip-path="url('#clip-path-corners-square-color-0-0')" fill="#540e22"/><rect x="124" y="124" height="93" width="93" clip-path="url('#clip-path-corners-dot-color-0-0')" fill="#540e22"/><rect x="744" y="62" height="217" width="217" clip-path="url('#clip-path-corners-square-color-1-0')" fill="#540e22"/><rect x="806" y="124" height="93" width="93" clip-path="url('#clip-path-corners-dot-color-1-0')" fill="#540e22"/><rect x="62" y="744" height="217" width="217" clip-path="url('#clip-path-corners-square-color-0-1')" fill="#540e22"/><rect x="124" y="806" height="93" width="93" clip-path="url('#clip-path-corners-dot-color-0-1')" fill="#540e22"/></svg>