<svg width="12" height="14" viewBox="0 0 12 14" fill="none" xmlns="http://www.w3.org/2000/svg">
<path d="M6 7.125C4.19727 7.125 2.75 5.67773 2.75 3.875C2.75 2.09766 4.19727 0.625 6 0.625C7.77734 0.625 9.25 2.09766 9.25 3.875C9.25 5.67773 7.77734 7.125 6 7.125ZM8.25977 7.9375C10.1387 7.9375 11.6875 9.48633 11.6875 11.3652V12.4062C11.6875 13.0918 11.1289 13.625 10.4688 13.625H1.53125C0.845703 13.625 0.3125 13.0918 0.3125 12.4062V11.3652C0.3125 9.48633 1.83594 7.9375 3.71484 7.9375H4.14648C4.70508 8.2168 5.33984 8.34375 6 8.34375C6.66016 8.34375 7.26953 8.2168 7.82812 7.9375H8.25977Z" fill="white"/>
</svg>
